<svg xmlns="http://www.w3.org/2000/svg" width="54" height="61" fill="none" viewBox="0 0 54 61">
    <path fill="red" d="M0 0H54V54.149H0z"/>
    <path fill="red" d="M0 0H10.3V10.3H0z" transform="rotate(45.079 -42.638 55.203)"/>
    <mask id="prefix__a" fill="#fff">
        <path fill-rule="evenodd" d="M28.53 36.842C31.1 33.29 36 26.031 36 22.353c0-4.984-4.03-9.025-9-9.025s-9 4.04-9 9.025c0 3.678 4.9 10.937 7.47 14.49.763 1.056 2.297 1.056 3.06 0zM27 23.482c1.243 0 2.25-1.011 2.25-2.257 0-1.246-1.007-2.256-2.25-2.256s-2.25 1.01-2.25 2.256c0 1.246 1.007 2.256 2.25 2.256z" clip-rule="evenodd"/>
    </mask>
    <path fill="#fff" d="M28.53 36.842l-1.62-1.172 1.62 1.172zm-3.06 0l-1.621 1.172 1.62-1.172zM34 22.353c0 .538-.195 1.4-.664 2.575-.453 1.137-1.098 2.413-1.846 3.728-1.494 2.627-3.313 5.263-4.58 7.014l3.241 2.344c1.303-1.8 3.218-4.57 4.816-7.38.799-1.405 1.54-2.855 2.085-4.224.53-1.332.948-2.756.948-4.057h-4zm-7-7.025c3.86 0 7 3.14 7 7.025h4c0-6.084-4.92-11.025-11-11.025v4zm-7 7.025c0-3.885 3.14-7.025 7-7.025v-4c-6.08 0-11 4.941-11 11.025h4zm7.09 13.317c-1.267-1.751-3.086-4.387-4.58-7.014-.748-1.315-1.393-2.59-1.846-3.728-.469-1.175-.664-2.037-.664-2.575h-4c0 1.3.417 2.725.948 4.056.546 1.37 1.286 2.82 2.085 4.224 1.598 2.81 3.513 5.58 4.816 7.381l3.24-2.344zm-.18 0c-.002.003.008-.01.03-.021.02-.01.041-.014.06-.014.019 0 .04.004.06.014.022.011.032.024.03.021l-3.241 2.344c1.562 2.16 4.74 2.16 6.302 0l-3.24-2.344zm.34-14.445c0 .147-.117.256-.25.256v4c2.352 0 4.25-1.91 4.25-4.256h-4zm-.25-.256c.133 0 .25.11.25.256h4c0-2.346-1.898-4.256-4.25-4.256v4zm-.25.256c0-.147.117-.256.25-.256v-4c-2.352 0-4.25 1.91-4.25 4.256h4zm.25.256c-.133 0-.25-.11-.25-.256h-4c0 2.345 1.898 4.256 4.25 4.256v-4z" mask="url(#prefix__a)"/>
</svg>
